HIERARCHY
ROOT Hips
{
	OFFSET 0.000000 0.000000 0.000000
	CHANNELS 6 Xposition Yposition Zposition Xrotation Yrotation Zrotation
	JOINT LeftUpLeg_virtual
	{
		OFFSET 0.000000 0.000000 0.000000
		CHANNELS 3 Xrotation Yrotation Zrotation
		JOINT LeftUpLeg
		{
			OFFSET 15.427100 -6.655098 0.678600
			CHANNELS 3 Xrotation Yrotation Zrotation
			JOINT LeftLeg
			{
				OFFSET 4.081073 -39.591068 13.024000
				CHANNELS 3 Xrotation Yrotation Zrotation
				JOINT LeftFoot
				{
					OFFSET -4.081074 -37.707932 -15.979700
					CHANNELS 3 Xrotation Yrotation Zrotation
					JOINT LeftToeBase
					{
						OFFSET 5.346399 -15.068900 20.645000
						CHANNELS 3 Xrotation Yrotation Zrotation
						JOINT LeftToe_End
						{
							OFFSET 2.754700 0.931300 11.300900
							CHANNELS 3 Xrotation Yrotation Zrotation
							End Site
							{
								OFFSET 0 0 0
							}
						}
					}
				}
			}
		}
	}
	JOINT RightUpLeg_virtual
	{
		OFFSET 0.000000 0.000000 0.000000
		CHANNELS 3 Xrotation Yrotation Zrotation
		JOINT RightUpLeg
		{
			OFFSET -15.569500 -6.655098 0.678600
			CHANNELS 3 Xrotation Yrotation Zrotation
			JOINT RightLeg
			{
				OFFSET -4.081825 -39.591045 13.023800
				CHANNELS 3 Xrotation Yrotation Zrotation
				JOINT RightFoot
				{
					OFFSET 4.081824 -37.707954 -15.979600
					CHANNELS 3 Xrotation Yrotation Zrotation
					JOINT RightToeBase
					{
						OFFSET -5.346400 -15.068900 20.645000
						CHANNELS 3 Xrotation Yrotation Zrotation
						JOINT RightToe_End
						{
							OFFSET -2.754700 0.931300 11.300900
							CHANNELS 3 Xrotation Yrotation Zrotation
							End Site
							{
								OFFSET 0 0 0
							}
						}
					}
				}
			}
		}
	}
	JOINT Spine_virtual
	{
		OFFSET 0.000000 0.000000 0.000000
		CHANNELS 3 Xrotation Yrotation Zrotation
		JOINT Spine
		{
			OFFSET -0.279200 12.230698 -2.892100
			CHANNELS 3 Xrotation Yrotation Zrotation
			JOINT Spine1
			{
				OFFSET -0.232667 10.192268 -1.242267
				CHANNELS 3 Xrotation Yrotation Zrotation
				JOINT Spine1_split
				{
					OFFSET -0.232667 10.192268 -1.242267
					CHANNELS 3 Xrotation Yrotation Zrotation
					JOINT Spine2
					{
						OFFSET -0.232667 10.192268 -1.242267
						CHANNELS 3 Xrotation Yrotation Zrotation
						JOINT Neck_virtual
						{
							OFFSET 0.000000 0.000000 0.000000
							CHANNELS 3 Xrotation Yrotation Zrotation
							JOINT Neck
							{
								OFFSET -0.418800 17.814194 8.416900
								CHANNELS 3 Xrotation Yrotation Zrotation
								JOINT Head
								{
									OFFSET 0.000000 7.031097 3.806800
									CHANNELS 3 Xrotation Yrotation Zrotation
									JOINT HeadTop_End
									{
										OFFSET 0.000000 24.646606 12.978600
										CHANNELS 3 Xrotation Yrotation Zrotation
										End Site
										{
											OFFSET 0 0 0
										}
									}
								}
							}
						}
						JOINT LeftShoulder_virtual
						{
							OFFSET 0.000000 0.000000 0.000000
							CHANNELS 3 Xrotation Yrotation Zrotation
							JOINT LeftShoulder
							{
								OFFSET 8.476499 7.247704 -3.868750
								CHANNELS 3 Xrotation Yrotation Zrotation
								JOINT LeftShoulder_split
								{
									OFFSET 8.476499 7.247704 -3.868750
									CHANNELS 3 Xrotation Yrotation Zrotation
									JOINT LeftArm
									{
										OFFSET 9.308998 -2.777710 0.208600
										CHANNELS 3 Xrotation Yrotation Zrotation
										JOINT LeftForeArm
										{
											OFFSET 29.972298 0.000000 0.000000
											CHANNELS 3 Xrotation Yrotation Zrotation
											JOINT LeftHand
											{
												OFFSET 26.026505 0.000000 0.000000
												CHANNELS 3 Xrotation Yrotation Zrotation
												End Site
												{
													OFFSET 0 0 0
												}
											}
										}
									}
								}
							}
						}
						JOINT RightShoulder_virtual
						{
							OFFSET 0.000000 0.000000 0.000000
							CHANNELS 3 Xrotation Yrotation Zrotation
							JOINT RightShoulder
							{
								OFFSET -7.570500 7.247704 -3.868750
								CHANNELS 3 Xrotation Yrotation Zrotation
								JOINT RightShoulder_split
								{
									OFFSET -7.570500 7.247704 -3.868750
									CHANNELS 3 Xrotation Yrotation Zrotation
									JOINT RightArm
									{
										OFFSET -9.308998 -2.777710 0.208500
										CHANNELS 3 Xrotation Yrotation Zrotation
										JOINT RightForeArm
										{
											OFFSET -29.972300 0.000000 0.000000
											CHANNELS 3 Xrotation Yrotation Zrotation
											JOINT RightHand
											{
												OFFSET -26.026505 0.000000 0.000000
												CHANNELS 3 Xrotation Yrotation Zrotation
												End Site
												{
													OFFSET 0 0 0
												}
											}
										}
									}
								}
							}
						}
					}
				}
			}
		}
	}
}
MOTION
Frames: 8
Frame Time: 0.03333333
2.298878 89.031151 6.492107 0.000000 0.000000 0.000000 -29.848121 -42.301049 -19.658920 2.390640 11.826123 4.481335 31.000750 1.102843 -5.109037 -15.371535 5.579329 3.685582 -5.235702 0.207756 0.374463 0.000000 0.000000 0.000000 -27.389180 -39.528385 -18.164528 19.063934 -10.749936 -6.818936 18.416000 8.150403 -3.734569 -18.617608 -14.507890 6.699722 -2.307144 0.453628 0.376790 0.000000 0.000000 0.000000 -29.402055 -41.548645 -19.973348 10.894056 -4.640209 0.957366 3.188093 -1.352529 0.008663 0.596599 1.102151 0.133037 0.000000 0.000000 0.000000 3.559250 -2.168013 -0.012025 1.851578 1.905957 -3.395902 -6.729612 -1.281701 4.157844 0.000000 0.000000 0.000000 3.576304 -2.488777 0.156775 0.971474 -15.341074 -11.086150 0.699659 -1.205758 -0.481559 -20.973923 0.215828 -38.872283 2.267744 -67.599871 2.076533 0.000000 0.000000 0.000000 2.704660 -2.453999 0.082603 0.012719 11.393706 15.995231 1.719306 3.389951 -2.104583 -10.200516 -7.361129 62.185799 -0.223774 42.063566 1.180746 0.000000 0.000000 0.000000 
3.032171 88.989677 7.485458 0.000000 0.000000 0.000000 -30.783427 -44.600736 -21.254444 3.617864 13.364439 4.825364 29.599468 1.153721 -7.307198 -16.480271 7.137680 7.741493 -5.163415 0.066806 0.700147 0.000000 0.000000 0.000000 -28.116494 -41.054116 -19.353628 18.403241 -10.925758 -7.630662 18.386845 8.373737 -5.125760 -17.220741 -14.209714 7.541196 -2.063667 0.465081 0.108187 0.000000 0.000000 0.000000 -30.415618 -43.231409 -21.327121 10.937348 -4.636748 0.825538 3.219737 -1.325669 -0.035201 0.546779 1.035011 0.142901 0.000000 0.000000 0.000000 3.503186 -2.145102 -0.018247 1.924084 1.876842 -3.369960 -6.591232 -1.088083 3.899004 0.000000 0.000000 0.000000 3.597192 -2.448645 0.149092 1.008736 -15.490437 -11.091974 0.628784 -1.172796 -0.478995 -20.823905 0.260364 -38.828089 2.277220 -67.690323 2.058287 0.000000 0.000000 0.000000 2.798958 -2.391451 0.061970 0.049571 11.342086 15.990432 1.660288 3.446654 -2.011429 -10.177412 -7.415775 62.333263 -0.181500 42.012996 1.149230 0.000000 0.000000 0.000000 
3.699956 88.936363 8.494377 0.000000 0.000000 0.000000 -32.088290 -46.863386 -23.014517 4.692790 14.213319 4.913943 28.454985 1.175984 -9.112110 -17.585347 8.835692 10.832052 -4.831151 -0.003532 0.684396 0.000000 0.000000 0.000000 -29.023683 -42.544377 -20.568964 17.685516 -10.777577 -8.337735 18.576402 8.022190 -6.456387 -15.877256 -14.339437 7.686100 -1.845278 0.486248 0.109438 0.000000 0.000000 0.000000 -31.631415 -44.810617 -22.792524 10.935078 -4.593886 0.614277 3.266653 -1.305188 -0.044691 0.528136 0.958247 0.181262 0.000000 0.000000 0.000000 3.481409 -2.136173 -0.005223 2.031825 1.842901 -3.362612 -6.453713 -0.997961 3.700920 0.000000 0.000000 0.000000 3.677208 -2.429822 0.160275 1.071414 -15.588998 -11.007634 0.514513 -1.201510 -0.566681 -20.684765 0.279992 -38.842275 2.276768 -67.732732 2.050084 0.000000 0.000000 0.000000 2.931776 -2.344674 0.071510 0.072060 11.323551 16.002346 1.670276 3.492622 -1.911689 -10.069527 -7.483314 62.360590 -0.150981 42.227470 1.121340 0.000000 0.000000 0.000000 
4.274052 88.931114 9.462849 0.000000 0.000000 0.000000 -33.610862 -48.746640 -24.795974 5.498295 14.446617 4.782673 27.642433 1.167522 -10.385540 -18.445450 10.589282 12.829441 -4.173834 0.023471 0.295172 0.000000 0.000000 0.000000 -30.218891 -44.144708 -21.939491 16.952263 -10.256665 -8.758564 19.047828 7.079019 -7.690010 -14.630537 -14.820715 7.215224 -1.989766 0.510365 0.323853 0.000000 0.000000 0.000000 -33.075775 -46.322811 -24.385497 10.885921 -4.508957 0.352016 3.326815 -1.308589 -0.015685 0.618860 0.857411 0.297592 0.000000 0.000000 0.000000 3.514775 -2.143011 0.034853 2.111932 1.790884 -3.350161 -6.416711 -1.019629 3.583700 0.000000 0.000000 0.000000 3.796962 -2.438147 0.190370 1.143119 -15.632805 -10.856207 0.416335 -1.261293 -0.705302 -20.657952 0.305554 -38.913650 2.299878 -67.804531 2.092578 0.000000 0.000000 0.000000 3.069002 -2.327396 0.108888 0.071301 11.329260 16.053835 1.733339 3.555188 -1.821835 -9.932990 -7.563254 62.231383 -0.150816 42.586393 1.108550 0.000000 0.000000 0.000000 
4.740052 88.989563 10.310638 0.000000 0.000000 0.000000 -35.276250 -50.260456 -26.614329 6.150667 14.435451 4.430002 27.058897 1.360157 -11.142072 -18.988816 12.308718 13.958518 -3.449525 0.134372 -0.337618 0.000000 0.000000 0.000000 -31.619227 -45.844937 -23.463961 16.189194 -9.405026 -8.775037 19.878466 5.725736 -8.753759 -13.726232 -15.453911 6.416609 -2.504288 0.544628 0.588589 0.000000 0.000000 0.000000 -34.634615 -47.801943 -26.057684 10.828602 -4.387641 0.083004 3.372157 -1.329993 0.034411 0.697484 0.764455 0.404594 0.000000 0.000000 0.000000 3.600429 -2.162443 0.089650 2.113384 1.705799 -3.323959 -6.500703 -1.111663 3.559731 0.000000 0.000000 0.000000 3.918083 -2.459830 0.229328 1.202823 -15.622984 -10.696516 0.420304 -1.359781 -0.830181 -20.782457 0.326944 -39.038971 2.360340 -67.929947 2.201454 0.000000 0.000000 0.000000 3.179022 -2.339392 0.161272 0.044964 11.350138 16.163264 1.862347 3.682844 -1.760885 -9.830708 -7.634719 61.978270 -0.190007 42.945764 1.116969 0.000000 0.000000 0.000000 
5.195712 89.095688 11.072689 0.000000 0.000000 0.000000 -37.100426 -51.602141 -28.543762 6.649265 14.477826 3.930763 26.725343 1.758249 -11.492264 -19.207322 13.900290 14.359014 -2.899617 0.294627 -1.006592 0.000000 0.000000 0.000000 -33.331665 -47.659247 -25.233444 15.354096 -8.422479 -8.455375 21.242790 4.140825 -9.499444 -13.348737 -15.965579 5.499450 -3.078807 0.602957 0.746279 0.000000 0.000000 0.000000 -36.320982 -49.338305 -27.835070 10.798413 -4.251448 -0.173769 3.388304 -1.364591 0.081631 0.776638 0.628521 0.435282 0.000000 0.000000 0.000000 3.717877 -2.181568 0.143546 2.028330 1.618086 -3.284918 -6.666181 -1.228066 3.616269 0.000000 0.000000 0.000000 4.005598 -2.482197 0.260521 1.229424 -15.613768 -10.587069 0.538705 -1.456027 -0.870939 -21.027098 0.353727 -39.207690 2.439365 -68.062794 2.351071 0.000000 0.000000 0.000000 3.243367 -2.369399 0.205137 -0.001270 11.386025 16.313084 2.017441 3.882050 -1.722625 -9.784049 -7.683214 61.702180 -0.250740 43.168793 1.143986 0.000000 0.000000 0.000000 
5.606332 89.212608 11.691139 0.000000 0.000000 0.000000 -39.176811 -53.027960 -30.702547 7.070430 14.932460 3.504695 26.722939 2.237685 -11.692201 -19.188810 15.130209 14.207360 -2.643730 0.439949 -1.471479 0.000000 0.000000 0.000000 -35.390154 -49.627273 -27.324600 14.474240 -7.619015 -8.012216 23.329071 2.495317 -9.755602 -13.608156 -16.220815 4.561888 -3.321837 0.701371 0.712346 0.000000 0.000000 0.000000 -38.174269 -50.889328 -29.745494 10.846749 -4.111987 -0.389130 3.370378 -1.393920 0.096812 0.794881 0.443960 0.417413 0.000000 0.000000 0.000000 3.838538 -2.190169 0.178578 1.890695 1.518932 -3.259093 -6.843359 -1.309922 3.710621 0.000000 0.000000 0.000000 4.034217 -2.493805 0.263192 1.218973 -15.628511 -10.556025 0.715128 -1.533334 -0.795204 -21.329895 0.368491 -39.404738 2.503286 -68.149886 2.488685 0.000000 0.000000 0.000000 3.264183 -2.394605 0.218532 -0.052813 11.443512 16.468956 2.174679 4.099946 -1.694523 -9.789113 -7.668234 61.505567 -0.308883 43.179527 1.176512 0.000000 0.000000 0.000000 
6.011409 89.283844 12.150120 0.000000 0.000000 0.000000 -41.868858 -54.832069 -33.433189 7.411767 15.818332 3.264415 27.130673 2.716587 -11.883156 -19.115792 15.958991 13.679316 -2.644622 0.542521 -1.606740 0.000000 0.000000 0.000000 -37.876104 -51.784445 -29.818912 13.592018 -7.301678 -7.750589 26.060068 0.927116 -9.369077 -14.230585 -16.316195 3.766431 -3.193606 0.830149 0.483902 0.000000 0.000000 0.000000 -40.292362 -52.538638 -31.941817 10.970052 -3.974737 -0.558943 3.323521 -1.403222 0.075216 0.745748 0.269743 0.324533 0.000000 0.000000 0.000000 3.930900 -2.186735 0.181298 1.759061 1.434936 -3.266684 -6.950465 -1.318825 3.819353 0.000000 0.000000 0.000000 4.004061 -2.485537 0.234034 1.177828 -15.653173 -10.615383 0.882137 -1.574394 -0.630479 -21.612001 0.358333 -39.586151 2.528736 -68.153274 2.577768 0.000000 0.000000 0.000000 3.256712 -2.405999 0.190328 -0.102893 11.505459 16.581374 2.353116 4.289047 -1.689781 -9.849307 -7.605163 61.462926 -0.338592 43.054244 1.201453 0.000000 0.000000 0.000000 
